<?xml version="1.0" encoding="UTF-8"?>
<svg width="177px" height="58px" viewBox="0 0 177 58" version="1.1" xmlns="http://www.w3.org/2000/svg" xmlns:xlink="http://www.w3.org/1999/xlink">
    <title>编组 60</title>
    <defs>
        <polygon id="path-1" points="0 0 176.172596 0 176.172596 40.2889692 0 40.2889692"></polygon>
    </defs>
    <g id="页面-1" stroke="none" stroke-width="1" fill="none" fill-rule="evenodd">
        <g id="01备份-2" transform="translate(-872.000000, -36.000000)">
            <g id="编组-60" transform="translate(872.000000, 36.000000)">
                <g id="编组">
                    <mask id="mask-2" fill="white">
                        <use xlink:href="#path-1"></use>
                    </mask>
                    <g id="Clip-2"></g>
                    <path d="M176.172596,40.2889692 L129.691299,40.2889692 C125.665207,40.2889692 122.389961,37.0137239 122.389961,32.9876318 L122.389961,7.30133731 C122.389961,3.27524528 125.665207,0 129.691299,0 L176.172596,0 L176.172596,9.70922515 L132.099186,9.70922515 L132.099186,30.579744 L176.172596,30.579744 L176.172596,40.2889692 Z M137.995922,25.000176 L176.172596,25.000176 L176.172596,15.2909508 L137.995922,15.2909508 L137.995922,25.000176 Z M114.978586,30.579744 L87.3080495,30.579744 L87.3080495,25.000176 L107.677249,25.000176 C111.703341,25.000176 114.978586,21.7249307 114.978586,17.6988386 L114.978586,7.30133731 C114.978586,3.27524528 111.703341,0 107.677249,0 L61.1937939,0 L61.1937939,40.2889692 L70.9030191,40.2889692 L70.9030191,9.70922515 L105.269361,9.70922515 L105.269361,15.2909508 L76.5127936,15.2909508 L76.5127936,40.2889692 L114.978586,40.2889692 L114.978586,30.579744 Z M53.7824187,40.2889692 L7.91172393,40.2889692 C3.54904543,40.2889692 -0.000215760559,36.739708 -0.000215760559,32.3770295 L-0.000215760559,7.91193969 C-0.000215760559,3.54926119 3.54904543,0 7.91172393,0 L53.7824187,0 L53.7824187,9.70922515 L9.70900939,9.70922515 L9.70900939,30.579744 L53.7824187,30.579744 L53.7824187,40.2889692 Z" id="Fill-1" fill="#E50113" mask="url(#mask-2)"></path>
                </g>
                <g id="www.cre.net" transform="translate(0.000000, 46.332315)" fill="#000000" fill-opacity="0.4" fill-rule="nonzero">
                    <polygon id="路径" points="14.1011392 0.096693526 11.764379 0.096693526 9.97554876 7.33259239 7.88052237 0.096693526 6.20450125 0.096693526 4.10947485 7.33259239 2.33676021 0.096693526 0 0.096693526 3.06196166 11.5709919 4.93136982 11.5709919 7.04251181 4.60905807 9.15365379 11.5709919 11.023062 11.5709919"></polygon>
                    <polygon id="路径" points="34.8419005 0.096693526 32.5051403 0.096693526 30.7163101 7.33259239 28.6212837 0.096693526 26.9452626 0.096693526 24.8502362 7.33259239 23.0775215 0.096693526 20.7407613 0.096693526 23.802723 11.5709919 25.6721311 11.5709919 27.7832731 4.60905807 29.8944151 11.5709919 31.7638233 11.5709919"></polygon>
                    <polygon id="路径" points="55.5826619 0.096693526 53.2459016 0.096693526 51.4570714 7.33259239 49.362045 0.096693526 47.6860239 0.096693526 45.5909975 7.33259239 43.8182829 0.096693526 41.4815226 0.096693526 44.5434843 11.5709919 46.4128925 11.5709919 48.5240345 4.60905807 50.6351764 11.5709919 52.5045846 11.5709919"></polygon>
                    <polygon id="路径" points="64.8168936 11.5709919 64.8168936 9.18588497 62.415671 9.18588497 62.415671 11.5709919"></polygon>
                    <path d="M81.7543762,8.04167824 L79.4820784,8.04167824 C79.2564601,8.96026674 78.676299,9.6693526 77.5482078,9.6693526 C76.9358155,9.6693526 76.4362323,9.44373437 76.1139205,9.07307585 C75.6787997,8.58960822 75.549875,8.04167824 75.549875,5.83384273 C75.549875,3.62600722 75.6787997,3.07807724 76.1139205,2.59460961 C76.4362323,2.2239511 76.9358155,1.99833287 77.5482078,1.99833287 C78.676299,1.99833287 79.2564601,2.70741873 79.4820784,3.62600722 L81.7543762,3.62600722 C81.3514865,1.22478466 79.6754654,0 77.5320922,0 C76.2750764,0 75.2436788,0.451236455 74.4378994,1.25701584 C73.2775771,2.41733815 73.3098083,3.85162545 73.3098083,5.83384273 C73.3098083,7.81606002 73.2775771,9.25034732 74.4378994,10.4106696 C75.2436788,11.216449 76.2750764,11.6676855 77.5320922,11.6676855 C79.6593498,11.6676855 81.3514865,10.4429008 81.7543762,8.04167824 Z" id="路径"></path>
                    <path d="M98.8207836,11.5709919 L96.2584051,6.62350653 C97.3703807,6.22061684 98.3534315,5.2214504 98.3534315,3.60989164 C98.3534315,1.6921367 96.967491,0.096693526 94.6307308,0.096693526 L90.1344818,0.096693526 L90.1344818,11.5709919 L92.3745485,11.5709919 L92.3745485,6.99416505 L93.9861073,6.99416505 L96.2261739,11.5709919 L98.8207836,11.5709919 Z M96.1133648,3.60989164 C96.1133648,4.49624896 95.4687413,5.12475688 94.4856905,5.12475688 L92.3745485,5.12475688 L92.3745485,2.0950264 L94.4856905,2.0950264 C95.4687413,2.0950264 96.1133648,2.72353432 96.1133648,3.60989164 Z" id="形状"></path>
                    <polygon id="路径" points="114.678522 11.5709919 114.678522 9.57265907 109.360378 9.57265907 109.360378 6.78466241 113.888858 6.78466241 113.888858 4.78632954 109.360378 4.78632954 109.360378 2.0950264 114.678522 2.0950264 114.678522 0.096693526 107.120311 0.096693526 107.120311 11.5709919"></polygon>
                    <polygon id="路径" points="125.475966 11.5709919 125.475966 9.18588497 123.074743 9.18588497 123.074743 11.5709919"></polygon>
                    <polygon id="路径" points="143.13865 11.5709919 143.13865 0.096693526 140.898583 0.096693526 140.898583 7.12308975 136.353987 0.096693526 134.355654 0.096693526 134.355654 11.5709919 136.595721 11.5709919 136.595721 4.52848013 141.140317 11.5709919"></polygon>
                    <polygon id="路径" points="159.818283 11.5709919 159.818283 9.57265907 154.500139 9.57265907 154.500139 6.78466241 159.028619 6.78466241 159.028619 4.78632954 154.500139 4.78632954 154.500139 2.0950264 159.818283 2.0950264 159.818283 0.096693526 152.260072 0.096693526 152.260072 11.5709919"></polygon>
                    <polygon id="路径" points="175.837177 2.0950264 175.837177 0.096693526 167.602112 0.096693526 167.602112 2.0950264 170.599611 2.0950264 170.599611 11.5709919 172.839678 11.5709919 172.839678 2.0950264"></polygon>
                </g>
            </g>
        </g>
    </g>
</svg>